<svg width="1137" height="162" viewBox="0 0 1137 162" fill="none" xmlns="http://www.w3.org/2000/svg">
<path d="M64.7914 161.981C43.6012 161.981 27.9743 158.097 17.0191 150.108C9.255 144.448 0 133.715 0 114.736V47.2452C0 28.2664 9.255 17.5335 17.0191 11.8732C27.9744 3.8839 43.6012 0 64.7914 0C85.9823 0 101.609 3.8839 112.565 11.8731C120.329 17.5334 129.583 28.2663 129.583 47.2451C129.583 71.7725 114.309 89.6634 88.724 95.1023L26.9959 108.222V114.736C26.9959 121.307 26.9959 134.983 64.7914 134.983C78.6051 134.983 90.7766 132.381 100.557 130.29L102.479 129.879C109.779 128.336 116.941 132.986 118.49 140.275C120.04 147.567 115.385 154.736 108.093 156.285L106.202 156.689C95.76 158.923 81.4594 161.981 64.7914 161.981ZM64.7914 26.9978C26.9959 26.9978 26.9959 40.6734 26.9959 47.2452V80.6229L83.1108 68.696C96.2165 65.9097 102.587 58.8931 102.587 47.2451C102.587 40.6734 102.587 26.9978 64.7914 26.9978ZM199.775 161.981C178.585 161.981 162.958 158.097 152.002 150.108C144.238 144.447 134.983 133.715 134.983 114.736C134.983 90.2086 150.258 72.3177 175.843 66.8788L237.571 53.7574V47.2451C237.571 40.6733 237.571 26.9977 199.775 26.9977C185.962 26.9977 173.79 29.6 164.01 31.6908L162.087 32.1019C154.796 33.6569 147.627 28.9955 146.077 21.7057C144.527 14.414 149.182 7.2451 156.473 5.6957L158.364 5.2921C168.807 3.058 183.107 0 199.775 0C220.965 0 236.592 3.8839 247.549 11.8731C255.313 17.5334 264.567 28.2663 264.567 47.2451V114.736C264.567 133.715 255.313 144.447 247.549 150.108C236.592 158.097 220.965 161.981 199.775 161.981ZM237.571 81.356L181.457 93.2851C168.35 96.0714 161.979 103.088 161.979 114.736C161.979 121.307 161.979 134.983 199.775 134.983C237.571 134.983 237.571 121.307 237.571 114.736L237.571 81.356ZM387.931 150.108C395.695 144.447 404.949 133.715 404.949 114.736C404.949 81.3931 374.709 70.688 348.363 65.0874C346.218 64.6314 344.037 64.1965 341.846 63.7611C318.254 59.0737 313.161 56.1402 313.161 47.2451C313.161 40.6733 313.161 26.9977 350.956 26.9977C361.06 26.9977 368.338 27.3809 377.845 29.401C385.142 30.9542 392.306 26.2965 393.855 19.0048C395.406 11.7131 390.75 4.5442 383.459 2.9947C371.729 0.5022 362.326 0 350.956 0C329.766 0 314.139 3.8839 303.184 11.8731C295.42 17.5334 286.165 28.2663 286.165 47.2451C286.165 80.2211 316.506 86.2503 336.584 90.24C338.656 90.6531 340.721 91.0623 342.75 91.4937C377.953 98.9771 377.953 108.841 377.953 114.736C377.953 121.307 377.953 134.983 340.157 134.983C326.344 134.983 314.172 132.381 304.392 130.29L302.469 129.879C295.177 128.339 288.01 132.986 286.46 140.275C284.909 147.567 289.564 154.736 296.856 156.285L298.746 156.689C309.189 158.923 323.49 161.981 340.157 161.981C361.348 161.981 376.974 158.097 387.931 150.108ZM531.834 0C524.379 0 518.336 6.0435 518.336 13.4989V80.6229L462.222 68.696C449.116 65.9097 442.745 58.8931 442.745 47.2451V13.4989C442.745 6.0435 436.701 0 429.247 0C421.791 0 415.749 6.0435 415.749 13.4989V47.2452C415.749 71.7726 431.023 89.6635 456.609 95.1024L518.336 108.222V114.736C518.336 121.307 518.335 134.984 480.541 134.984C468.654 134.984 458.1 132.58 448.788 130.46C446.714 129.987 444.734 129.537 442.851 129.137C435.558 127.588 428.391 132.244 426.842 139.533C425.291 146.825 429.946 153.994 437.239 155.544C439 155.917 440.853 156.341 442.794 156.782C452.963 159.098 465.618 161.981 480.541 161.981C501.73 161.981 517.357 158.097 528.313 150.108C536.077 144.447 545.333 133.715 545.333 114.736V13.4989C545.333 6.0435 539.29 0 531.834 0Z" fill="#872878"/>
<path d="M585.826 161.981C578.371 161.981 572.327 155.938 572.327 148.482V47.2452C572.327 28.2664 581.583 17.5335 589.347 11.8732C600.304 3.8839 615.931 0 637.121 0C658.311 0 673.938 3.8839 684.894 11.8731C692.656 17.5334 701.912 28.2663 701.912 47.2451C701.912 71.7742 686.637 89.6651 661.053 95.1023L599.325 108.222V148.482C599.325 155.938 593.281 161.981 585.826 161.981ZM637.121 26.9978C599.325 26.9978 599.325 40.6734 599.325 47.2452V80.6229L655.439 68.696C668.545 65.9097 674.915 58.8931 674.915 47.2451C674.915 40.6734 674.915 26.9978 637.121 26.9978ZM766.704 161.981C745.513 161.981 729.887 158.097 718.931 150.108C711.168 144.447 701.912 133.715 701.912 114.736C701.912 90.2063 717.188 72.316 742.772 66.8788L804.5 53.7574V47.2451C804.5 40.6733 804.5 26.9977 766.704 26.9977C752.893 26.9977 740.722 29.6 730.941 31.6908L729.016 32.1019C721.721 33.6495 714.556 28.9973 713.006 21.7057C711.457 14.4122 716.111 7.2451 723.402 5.6957L725.298 5.2921C735.739 3.058 750.039 0 766.704 0C787.895 0 803.521 3.8839 814.477 11.8731C822.242 17.5334 831.497 28.2663 831.497 47.2451V114.736C831.497 133.715 822.242 144.447 814.477 150.108C803.521 158.097 787.895 161.981 766.704 161.981ZM804.5 81.356L748.385 93.2851C735.279 96.0714 728.91 103.088 728.91 114.736C728.91 121.307 728.91 134.983 766.704 134.983C804.5 134.983 804.5 121.307 804.5 114.736V81.356ZM953.056 93.5577C975.093 86.7726 988.077 69.8383 988.077 47.2451C988.077 28.2663 978.821 17.5334 971.059 11.8731C960.103 3.8839 944.476 0 923.285 0C902.095 0 886.468 3.8839 875.512 11.8731C867.748 17.5334 858.492 28.2663 858.492 47.2451V148.482C858.492 155.938 864.535 161.981 871.991 161.981C879.446 161.981 885.489 155.938 885.489 148.482V108.222L925.448 99.7291L957.491 155.228C959.991 159.56 964.528 161.98 969.193 161.98C971.483 161.98 973.804 161.396 975.928 160.169C982.385 156.442 984.597 148.186 980.869 141.731L953.056 93.5577ZM885.489 47.2452C885.489 40.6734 885.489 26.9978 923.285 26.9978C961.079 26.9978 961.079 40.6734 961.079 47.2452C961.079 58.8932 954.71 65.9098 941.604 68.6961L885.489 80.623V47.2452ZM1092.09 72.5286C1107.85 56.0691 1121.75 38.09 1132.05 20.2493C1135.77 13.7928 1133.56 5.5376 1127.11 1.8099C1120.65 -1.9159 1112.39 0.2958 1108.67 6.7522C1092.06 35.5142 1065.16 64.7188 1036.67 85.6846V13.4989C1036.67 6.0436 1030.63 0 1023.17 0C1015.72 0 1009.67 6.0435 1009.67 13.4989V148.482C1009.67 155.938 1015.72 161.981 1023.17 161.981C1030.63 161.981 1036.67 155.938 1036.67 148.482V118.301C1048.66 110.799 1060.6 101.776 1072.02 91.7556L1108.67 155.228C1111.17 159.56 1115.71 161.98 1120.37 161.98C1122.66 161.98 1124.98 161.396 1127.11 160.169C1133.56 156.442 1135.78 148.186 1132.05 141.731L1092.09 72.5286Z" fill="#FF52A3"/>
</svg>
